<svg id="visual" viewBox="0 0 1920 300" width="1920" height="300" xmlns="http://www.w3.org/2000/svg" xmlns:xlink="http://www.w3.org/1999/xlink" version="1.1"><rect x="0" y="0" width="1920" height="300" fill="#1E1E1E"></rect><path d="M0 104L45.7 108.5C91.3 113 182.7 122 274.2 119.3C365.7 116.7 457.3 102.3 548.8 99.5C640.3 96.7 731.7 105.3 823 113.2C914.3 121 1005.7 128 1097 121.5C1188.3 115 1279.7 95 1371.2 90.3C1462.7 85.7 1554.3 96.3 1645.8 106.8C1737.3 117.3 1828.7 127.7 1874.3 132.8L1920 138L1920 301L1874.3 301C1828.7 301 1737.3 301 1645.8 301C1554.3 301 1462.7 301 1371.2 301C1279.7 301 1188.3 301 1097 301C1005.7 301 914.3 301 823 301C731.7 301 640.3 301 548.8 301C457.3 301 365.7 301 274.2 301C182.7 301 91.3 301 45.7 301L0 301Z" fill="#3e065f"></path><path d="M0 175L45.7 172.8C91.3 170.7 182.7 166.3 274.2 162.3C365.7 158.3 457.3 154.7 548.8 155.7C640.3 156.7 731.7 162.3 823 161C914.3 159.7 1005.7 151.3 1097 142.8C1188.3 134.3 1279.7 125.7 1371.2 131.5C1462.7 137.3 1554.3 157.7 1645.8 169.5C1737.3 181.3 1828.7 184.7 1874.3 186.3L1920 188L1920 301L1874.3 301C1828.7 301 1737.3 301 1645.8 301C1554.3 301 1462.7 301 1371.2 301C1279.7 301 1188.3 301 1097 301C1005.7 301 914.3 301 823 301C731.7 301 640.3 301 548.8 301C457.3 301 365.7 301 274.2 301C182.7 301 91.3 301 45.7 301L0 301Z" fill="#500777"></path><path d="M0 208L45.7 206.3C91.3 204.7 182.7 201.3 274.2 197.3C365.7 193.3 457.3 188.7 548.8 188C640.3 187.3 731.7 190.7 823 189.2C914.3 187.7 1005.7 181.3 1097 177.8C1188.3 174.3 1279.7 173.7 1371.2 176.7C1462.7 179.7 1554.3 186.3 1645.8 185.7C1737.3 185 1828.7 177 1874.3 173L1920 169L1920 301L1874.3 301C1828.7 301 1737.3 301 1645.8 301C1554.3 301 1462.7 301 1371.2 301C1279.7 301 1188.3 301 1097 301C1005.7 301 914.3 301 823 301C731.7 301 640.3 301 548.8 301C457.3 301 365.7 301 274.2 301C182.7 301 91.3 301 45.7 301L0 301Z" fill="#64088f"></path><path d="M0 195L45.7 196.2C91.3 197.3 182.7 199.7 274.2 201.5C365.7 203.3 457.3 204.7 548.8 206.2C640.3 207.7 731.7 209.3 823 210.3C914.3 211.3 1005.7 211.7 1097 209C1188.3 206.3 1279.7 200.7 1371.2 201.5C1462.7 202.3 1554.3 209.7 1645.8 214.8C1737.3 220 1828.7 223 1874.3 224.5L1920 226L1920 301L1874.3 301C1828.7 301 1737.3 301 1645.8 301C1554.3 301 1462.7 301 1371.2 301C1279.7 301 1188.3 301 1097 301C1005.7 301 914.3 301 823 301C731.7 301 640.3 301 548.8 301C457.3 301 365.7 301 274.2 301C182.7 301 91.3 301 45.7 301L0 301Z" fill="#7908a8"></path><path d="M0 242L45.7 246.5C91.3 251 182.7 260 274.2 265C365.7 270 457.3 271 548.8 265.7C640.3 260.3 731.7 248.7 823 247.2C914.3 245.7 1005.7 254.3 1097 255.2C1188.3 256 1279.7 249 1371.2 244.3C1462.7 239.7 1554.3 237.3 1645.8 238.5C1737.3 239.7 1828.7 244.3 1874.3 246.7L1920 249L1920 301L1874.3 301C1828.7 301 1737.3 301 1645.8 301C1554.3 301 1462.7 301 1371.2 301C1279.7 301 1188.3 301 1097 301C1005.7 301 914.3 301 823 301C731.7 301 640.3 301 548.8 301C457.3 301 365.7 301 274.2 301C182.7 301 91.3 301 45.7 301L0 301Z" fill="#8e05c2"></path></svg>